<svg width="146" height="146" viewBox="0 0 146 146" fill="none" xmlns="http://www.w3.org/2000/svg">
<path fill-rule="evenodd" clip-rule="evenodd" d="M15.3645 57.3405C6.87896 89.009 25.6724 121.56 57.3409 130.046C89.0094 138.531 121.561 119.738 130.046 88.0694L119.621 85.2758C112.678 111.186 86.045 126.563 60.1345 119.62C34.2239 112.677 18.8474 86.0446 25.7901 60.134C32.7328 34.2235 59.3657 18.847 85.2763 25.7897L88.0698 15.3641C56.4013 6.87854 23.85 25.672 15.3645 57.3405Z" fill="currentColor"/>
<mask id="mask0_3156_39692" style="mask-type:alpha" maskUnits="userSpaceOnUse" x="13" y="13" width="118" height="120">
<path fill-rule="evenodd" clip-rule="evenodd" d="M15.3645 57.3405C6.87896 89.009 25.6724 121.56 57.3409 130.046C89.0094 138.531 121.561 119.738 130.046 88.0694L119.621 85.2758C112.678 111.186 86.045 126.563 60.1345 119.62C34.2239 112.677 18.8474 86.0446 25.7901 60.134C32.7328 34.2235 59.3657 18.847 85.2763 25.7897L88.0698 15.3641C56.4013 6.87854 23.85 25.672 15.3645 57.3405Z" fill="currentColor"/>
</mask>
<g mask="url(#mask0_3156_39692)">
</g>
<path d="M47.5952 62.3662L81.4153 90.4969L132.146 28.6094" stroke="currentColor" stroke-width="14"/>
</svg>
