<svg width="518" height="518" viewBox="0 0 518 518" fill="none" xmlns="http://www.w3.org/2000/svg">
    <path d="M225.569 34.5731C166.05 35.6298 73.9614 58.3634 47.4561 116.784C38.1973 137.188 38.8244 167.187 40.0773 227.18C40.4461 244.814 41.0574 270.515 45.3474 302.406C54.2598 368.65 60.3263 413.747 83.2885 440.007C140.824 505.806 348.656 503.904 437.406 385.444C485.822 320.826 493.271 228.902 449.003 152.932C400.262 69.2901 305.251 33.1591 225.569 34.5731Z" fill="#EBF4FF"/>
    <path d="M262.106 67.7565L218.847 428.959C218.199 434.378 221.915 439.233 227.12 439.751L407.3 459.621C418.337 460.312 424.38 454.645 425.061 448.888L470.476 64.8671C471.152 59.1401 465.738 53.9549 454.652 53.9532L272.835 57.7998C267.571 57.8879 262.749 62.3676 262.105 67.7548L262.106 67.7565Z" fill="#605F5F"/>
    <path d="M253.996 67.1339L210.5 430.144C209.847 435.59 213.575 440.466 218.8 440.991L405.598 459.673C411.451 460.257 416.821 456.002 417.505 450.215L463.175 64.2096C463.859 58.4536 459.556 53.8261 453.634 53.9273L264.77 57.1292C259.487 57.219 254.646 61.7211 253.996 67.1356V67.1339Z" fill="#272626"/>
    <path d="M257.542 87.1584L217.226 423.741C216.616 428.828 220.108 433.376 224.999 433.856L400.673 451.012C406.116 451.544 411.106 447.569 411.745 442.182L453.951 85.6016C454.587 80.2417 450.595 75.9046 445.094 75.9637L267.616 77.8623C262.674 77.9152 258.148 82.0982 257.542 87.1584Z" fill="#569FFF"/>
    <path d="M351.747 66.8856C351.519 68.8174 352.897 70.3648 354.834 70.3406C356.771 70.3165 358.529 68.7262 358.76 66.791C358.992 64.854 357.603 63.3083 355.666 63.3356C353.729 63.3646 351.974 64.9534 351.747 66.8856Z" fill="white"/>
    <g style="mix-blend-mode:soft-light">
        <path d="M287.914 313.094C323.879 246.297 377.605 226.302 393.78 157.459C402.524 120.248 396.567 84.6314 386.532 55.0625L453.637 53.9257C459.556 53.8249 463.855 58.452 463.175 64.208L417.505 450.215C416.821 456.002 411.451 460.26 405.597 459.673L258.756 444.986C257.671 385.133 271.882 342.867 287.914 313.092V313.094Z" fill="white"/>
    </g>
    <path d="M420.392 108.817L421.269 113.577L246.37 113.994C242.337 114.003 238.624 117.353 238.072 121.477L200.635 372.829C200.078 376.99 206.525 383.341 210.536 383.648L280.112 389.022V388.935L384.187 396.957H384.194L384.446 397.061C388.89 397.406 392.965 394.167 393.542 389.774C393.542 389.771 393.542 389.792 393.542 389.792L428.604 121.43C429.17 117.075 424.864 108.805 420.395 108.817H420.392Z" fill="#605F5F"/>
    <path d="M389.992 384.546C389.419 388.942 385.344 392.226 380.899 391.884L206.811 378.454C202.803 378.147 200.011 374.521 200.568 370.36L234.601 116.337C235.153 112.215 238.862 108.864 242.894 108.853L417.964 108.368C422.429 108.356 425.599 111.875 425.03 116.228L389.989 384.546H389.992Z" fill="white"/>
    <g style="mix-blend-mode:soft-light" opacity="0.4">
        <path d="M425.036 116.228L389.995 384.546C389.418 388.939 385.084 392.205 380.644 391.863L276.084 383.8C271.118 378.689 267.027 372.559 264.108 365.204C262.675 361.595 261.624 357.703 260.928 353.611C258.987 342.281 259.739 329.402 262.571 316.76C264.748 307.03 268.16 297.421 272.53 288.753C276.024 281.822 280.134 275.485 284.724 270.161C288.028 266.329 291.603 262.604 295.372 258.952C299.918 254.544 304.749 250.241 309.732 245.979C321.345 236.04 333.779 226.322 345.292 216.061C371.855 192.388 393.407 165.936 388.224 128.195C388.054 127.007 386.438 117.903 384.37 108.466L417.712 108.375C422.177 108.362 425.606 111.881 425.036 116.234V116.228Z" fill="white"/>
    </g>
    <path d="M361.661 465.195C361.709 465.202 361.754 465.209 361.802 465.219C369.503 466.452 379.155 465.589 385.395 460.44C388.68 457.726 390.907 454.148 391.591 449.911C391.995 447.397 392.216 444.745 391.826 442.213C391.415 439.568 390.396 437.009 389.084 434.688C388.351 433.393 387.516 432.14 386.628 430.945C384.09 427.523 378.088 422.709 380.872 417.857C382.553 414.922 386.431 413.115 388.994 411.057C394.467 406.661 398.401 400.321 398.456 393.079C398.501 387.388 394.951 381.759 390.945 377.933C374.642 362.369 386.652 335.601 363.563 337.703C340.479 339.805 335.469 362.952 344.116 384.563C347.012 391.798 350.534 399.192 352.499 406.754C354.05 412.708 351.86 416.824 347.036 420.34C344.438 422.232 340.644 423.524 338.389 425.755C333.352 430.734 329.316 437.714 330.517 445.021C331.71 452.269 337.861 457.594 344.343 460.347C349.947 462.73 355.669 464.235 361.664 465.199L361.661 465.195Z" fill="#9CFFC8"/>
    <path d="M356.792 424.895C358.725 421.821 360.935 418.931 363.246 416.313C371.047 407.48 376.52 398.1 380.026 386.78C382.785 377.867 382.726 367.673 384.439 358.47C385.679 351.798 387.927 345.344 390.265 338.995C395.237 325.474 402.704 309.787 415.236 301.666C421.037 297.906 429.643 297.536 436.039 300.23C444.33 303.719 451.658 310.517 452.193 319.968C452.922 332.967 441.623 347.537 450.967 359.489C465.278 377.791 458.589 398.125 438.915 408.077C432.502 411.32 424.988 414.328 419.632 419.307C414.258 424.301 417.46 432.827 418.057 439.154C418.617 445.093 419.235 451.993 415.467 457.07C409.113 465.634 393.766 469.367 383.79 470.213C374.138 471.031 363.17 469.961 356.408 462.198C346.221 450.498 349.546 436.415 356.792 424.891V424.895Z" fill="#4EE0BC"/>
    <path d="M385.989 473.86C383.914 473.563 381.842 473.221 379.78 472.889C374.017 471.96 366.879 470.158 365.066 463.696C364.551 461.856 365.439 458.572 365.653 456.659C365.87 454.711 366.15 452.767 366.599 450.857C367.224 448.219 368.222 445.739 369.517 443.363C371.762 439.254 374.328 436.16 379.103 435.227C382.588 434.547 386.445 434.388 389.985 434.505C409.282 435.141 411.655 428.148 422.253 413.212C432.851 398.277 502.605 422.429 460.53 448.965C460.53 448.965 454.203 453.098 431.111 450.394C426.887 449.9 421.545 449.572 417.964 452.318C411.648 457.159 417.998 467.416 411.62 471.442C407.904 473.791 401.927 474.478 397.655 474.643C393.753 474.795 389.861 474.409 385.993 473.86H385.989Z" fill="#27B264"/>
    <path d="M195.925 116.146C195.925 144.828 172.918 169.624 144.451 171.535C115.887 173.452 92.6601 151.618 92.6601 122.758C92.6601 93.8978 115.889 69.0894 144.453 67.35C172.92 65.615 195.927 87.4653 195.927 116.146H195.925Z" fill="#1F9050"/>
    <path d="M202.036 117.984C202.036 146.666 179.03 171.462 150.563 173.373C121.998 175.29 98.771 153.456 98.771 124.596C98.771 95.736 121.998 70.9276 150.563 69.1864C179.03 67.4514 202.036 89.3017 202.036 117.982V117.984Z" fill="#4EE0BC"/>
    <path d="M148.745 149.468C146.505 149.615 144.422 148.568 143.264 146.699L123.8 115.3C121.976 112.359 122.959 108.328 125.995 106.299C129.027 104.273 132.965 105.012 134.786 107.954L148.285 129.75L166.097 93.3093C167.694 90.0383 171.536 88.5392 174.672 89.9568C177.809 91.3741 179.057 95.1724 177.46 98.4417L154.444 145.572C153.391 147.73 151.295 149.214 148.973 149.448C148.898 149.456 148.823 149.463 148.748 149.468H148.745Z" fill="white"/>
    <path d="M358.798 219.251C358.625 220.56 357.41 221.536 356.08 221.488L263.966 218.111C262.749 218.066 261.894 217.061 262.061 215.812L263.873 202.328C264.041 201.079 265.15 200.234 266.366 200.268L358.56 202.84C359.889 202.877 360.835 203.821 360.663 205.129L358.795 219.253L358.798 219.251Z" fill="#F4F7FA"/>
    <path d="M355.227 246.65C355.054 247.962 353.839 249.081 352.51 249.014L260.466 244.445C259.252 244.385 258.406 243.217 258.574 241.965L260.399 228.22C260.567 226.969 261.687 225.898 262.902 225.946L355.002 229.677C356.332 229.732 357.271 230.939 357.099 232.249L355.227 246.647V246.65Z" fill="#F4F7FA"/>
    <path d="M360.67 205.072C360.452 205.001 360.217 204.963 359.969 204.955L267.772 202.384C266.556 202.349 265.445 203.196 265.281 204.443L263.468 217.927C263.465 217.962 263.461 217.994 263.457 218.03C262.521 217.765 261.921 216.876 262.062 215.809L263.875 202.325C264.041 201.079 265.15 200.231 266.366 200.266L358.563 202.837C359.869 202.875 360.808 203.791 360.67 205.072Z" fill="#AABBCC"/>
    <path d="M357.12 231.949C356.899 231.861 356.657 231.808 356.405 231.797L264.309 228.064C263.092 228.015 261.972 229.089 261.806 230.338L259.978 244.083C259.967 244.171 259.961 244.256 259.961 244.345C259.026 244.042 258.433 243.031 258.574 241.965L260.399 228.22C260.565 226.969 261.686 225.897 262.902 225.946L354.999 229.679C356.232 229.732 357.123 230.763 357.12 231.949Z" fill="#AABBCC"/>
    <path d="M330.75 268.857C331.021 266.789 329.566 264.882 327.497 264.764L279.849 262.015C277.877 261.901 276.054 263.57 275.786 265.586L273.819 280.474C273.551 282.492 274.921 284.42 276.892 284.555L324.516 287.829C326.584 287.97 328.488 286.216 328.761 284.147L330.752 268.858L330.75 268.857Z" fill="#4EE0BC"/>
    <path d="M284.719 277.991L285.277 269.39L287.096 269.509L286.634 276.61L290.322 276.849L290.224 278.349L284.719 277.991Z" fill="white"/>
    <path d="M299.158 274.61C299.097 275.548 298.868 276.335 298.469 276.97C298.074 277.605 297.56 278.076 296.927 278.383C296.297 278.688 295.602 278.816 294.844 278.767C294.079 278.717 293.405 278.499 292.82 278.112C292.235 277.726 291.787 277.192 291.477 276.511C291.167 275.83 291.043 275.022 291.103 274.087C291.164 273.149 291.392 272.363 291.788 271.728C292.183 271.093 292.696 270.623 293.326 270.318C293.956 270.01 294.653 269.881 295.418 269.931C296.176 269.98 296.848 270.198 297.433 270.585C298.021 270.969 298.47 271.501 298.78 272.182C299.093 272.863 299.219 273.673 299.158 274.61ZM297.314 274.491C297.354 273.883 297.296 273.365 297.141 272.936C296.989 272.507 296.756 272.174 296.443 271.938C296.129 271.701 295.753 271.568 295.313 271.539C294.874 271.511 294.483 271.594 294.141 271.788C293.8 271.982 293.525 272.282 293.316 272.688C293.109 273.093 292.986 273.6 292.947 274.207C292.907 274.815 292.964 275.333 293.116 275.762C293.271 276.191 293.505 276.523 293.819 276.76C294.132 276.997 294.509 277.13 294.948 277.158C295.388 277.187 295.778 277.104 296.12 276.91C296.461 276.715 296.735 276.416 296.942 276.01C297.151 275.605 297.275 275.098 297.314 274.491Z" fill="white"/>
    <path d="M306.189 273.54C306.143 273.332 306.072 273.146 305.976 272.983C305.88 272.816 305.758 272.673 305.612 272.554C305.468 272.432 305.3 272.336 305.107 272.264C304.918 272.193 304.706 272.149 304.471 272.134C304.031 272.106 303.638 272.19 303.29 272.386C302.946 272.583 302.668 272.884 302.456 273.29C302.244 273.692 302.119 274.193 302.08 274.792C302.041 275.391 302.099 275.906 302.253 276.338C302.408 276.77 302.645 277.107 302.964 277.35C303.283 277.59 303.669 277.725 304.123 277.754C304.534 277.781 304.89 277.731 305.191 277.604C305.494 277.475 305.732 277.281 305.903 277.022C306.078 276.764 306.177 276.451 306.2 276.084L306.566 276.163L304.349 276.019L304.438 274.65L308.037 274.883L307.967 275.967C307.918 276.723 307.716 277.362 307.361 277.884C307.007 278.404 306.54 278.793 305.961 279.05C305.383 279.305 304.732 279.409 304.01 279.362C303.203 279.31 302.507 279.086 301.919 278.691C301.332 278.293 300.889 277.754 300.59 277.074C300.295 276.391 300.176 275.596 300.235 274.689C300.28 273.992 300.422 273.377 300.659 272.844C300.899 272.308 301.214 271.862 301.606 271.505C301.997 271.148 302.443 270.886 302.943 270.719C303.443 270.552 303.977 270.487 304.546 270.524C305.033 270.555 305.482 270.656 305.892 270.826C306.303 270.994 306.663 271.217 306.971 271.495C307.282 271.774 307.529 272.098 307.713 272.467C307.897 272.833 308.005 273.231 308.036 273.66L306.189 273.54Z" fill="white"/>
    <path d="M311.363 271.085L310.804 279.685L308.986 279.567L309.544 270.967L311.363 271.085Z" fill="white"/>
    <path d="M319.934 271.641L319.376 280.242L317.805 280.14L314.415 274.484L314.352 274.48L314 279.893L312.182 279.775L312.741 271.174L314.336 271.278L317.697 276.928L317.773 276.933L318.124 271.524L319.934 271.641Z" fill="white"/>
    <path d="M388.139 158.625C376.188 158.625 367.401 148.575 368.53 136.45C369.636 124.569 379.891 115.078 391.409 115.078C402.928 115.078 411.758 124.569 411.079 136.45C410.387 148.575 400.091 158.625 388.139 158.625Z" fill="#AABBCC"/>
    <path d="M410.244 136.45C409.57 148.114 399.698 157.74 388.205 157.74C376.712 157.74 368.285 148.114 369.364 136.45C370.421 125.012 380.255 115.901 391.347 115.901C402.44 115.901 410.904 125.012 410.244 136.45Z" fill="#EAEDF3"/>
    <path d="M388.704 121.573C384.812 121.46 380.938 123.496 379.049 126.339C376.76 129.784 379.28 131.513 377.493 137.17C375.832 142.431 372.92 143.334 373.08 146.818C373.257 150.658 376.942 153.106 378.403 154.076C384.997 158.456 395.875 158.272 401.748 152.626C402.236 152.157 406.253 148.296 405.451 144.767C404.739 141.625 400.857 141.604 400.267 138.357C399.762 135.575 402.46 134.679 402.467 130.675C402.468 129.895 402.476 126.216 399.675 124.523C397.813 123.399 395.661 123.721 394.869 123.878C393.983 123.173 391.814 121.664 388.704 121.573Z" fill="#272626"/>
    <path d="M366.157 150.734C366.157 150.734 387.247 139.489 411.308 150.698C411.308 150.698 407.564 160.472 388.394 161.145C368.553 161.842 366.157 150.734 366.157 150.734Z" fill="#ADD0FF"/>
    <path d="M386.729 136.136L385.565 141.448C385.165 143.271 383.727 144.801 381.845 145.394L375.538 147.381C375.538 147.381 386.878 152.838 402.118 147.384L395.521 145.125C393.656 144.434 392.477 142.7 392.537 140.737L392.673 136.206L386.729 136.136Z" fill="#84420A"/>
    <path d="M396.111 131.596C395.8 136.04 392.628 140.829 389.111 140.802C385.573 140.775 383.082 135.887 383.445 131.395C383.805 126.937 386.843 124.574 390.329 124.65C393.795 124.726 396.42 127.185 396.111 131.596Z" fill="#AC560E"/>
    <path d="M392.894 127.548C391.001 127.604 388.109 127.981 385.971 129.919C382.365 133.188 383.529 138.504 382.008 138.804C380.652 139.073 378.907 135.269 379.288 131.146C379.605 127.716 381.179 123.722 384.472 122.788C386.403 122.24 386.882 123.211 392.916 123.91C396.433 124.317 394.937 125.788 395.695 126.364C399.068 128.927 398.055 137.198 396.123 137.284C395.206 137.324 394.099 135.135 392.894 127.548Z" fill="#272626"/>
    <path d="M232.997 254.374C236.229 257.233 230.315 278.664 213.529 285.051C200.295 290.087 184.501 284.503 176.924 273.448C172.556 267.074 168.6 255.692 173.451 250.158C173.672 249.906 176.414 246.874 180.323 247.09C189.372 247.589 189.958 264.682 199.662 266.775C201.942 267.267 202.763 266.505 221.816 258.158C231.008 254.132 232.224 253.693 232.997 254.376V254.374Z" fill="#ADD0FF"/>
    <path d="M232.124 254.601C232.124 254.601 232.233 250.099 234.553 249.068C236.875 248.038 239.52 242.831 239.359 245.488C239.198 248.146 236.821 249.394 236.821 249.394C236.821 249.394 240.655 250.781 238.98 252.936C237.306 255.091 235.417 255.523 233.473 256.5C233.473 256.5 232.946 258.14 231.61 257.897C230.274 257.653 231.422 255.334 232.123 254.601H232.124Z" fill="#AC560E"/>
    <path d="M150.682 310.501C137.757 316.72 125.487 314.867 116.902 313.568C107.199 312.101 97.8564 310.69 94.1899 303.406C90.5622 296.197 93.8039 285.84 99.5336 280.207C106.266 273.589 112.982 276.884 117.665 270.429C122.462 263.815 116.798 258.448 121.099 251.065C126.515 241.772 138.147 245.713 143.811 236.301C148.459 228.58 142.762 222.272 147.437 217.321C153.92 210.454 172.827 214.126 175.856 222.216C177.039 225.378 175.245 227.738 173.92 232.181C169.705 246.316 178.328 254.338 179.118 267.17C180.188 284.506 166.614 302.834 150.682 310.501Z" fill="#272626"/>
    <path d="M141.92 458.007C141.92 458.007 154.856 459.655 155.35 462.607C155.924 466.036 140.966 463.025 140.966 463.025C140.966 463.025 138.675 462.269 141.92 458.007Z" fill="url(#paint0_linear_1_653)"/>
    <path d="M142.744 450.983L142.427 458.235C142.427 458.235 144.009 460.249 145.82 458.791L147.265 450.98H142.744V450.983Z" fill="#AC560E"/>
    <path d="M162.994 461.52C162.994 461.52 175.93 463.167 176.423 466.119C176.998 469.549 162.039 466.537 162.039 466.537C162.039 466.537 159.749 465.781 162.994 461.52Z" fill="url(#paint1_linear_1_653)"/>
    <path d="M163.818 454.495L163.502 461.747C163.502 461.747 165.083 463.764 166.895 462.307L168.339 454.495H163.818Z" fill="#AC560E"/>
    <path d="M181.264 334.92C180.584 345.414 178.91 360.52 174.393 378.315C172.768 384.717 171.135 390.053 167.458 401.145C163.068 414.385 156.875 432.477 148.805 454.323C146.465 454.682 144.124 455.045 141.784 455.404C136.94 437.664 138.332 423.716 143.307 412.627C146.253 406.059 147.987 406 151.019 398.666C154.241 390.871 155.558 383.022 154.744 356.514C154.513 349.01 154.082 339.033 153.211 327.231C162.561 329.795 171.913 332.358 181.264 334.92Z" fill="url(#paint2_linear_1_653)"/>
    <path style="mix-blend-mode:multiply" opacity="0.3" d="M181.263 334.92C180.584 345.414 178.909 360.52 174.393 378.315C172.768 384.718 171.135 390.053 167.458 401.145C163.067 414.385 156.875 432.477 148.805 454.323C146.465 454.682 144.124 455.045 141.784 455.404C137.645 438.845 140.676 430.153 144.441 425.242C146.767 422.207 149.689 420.207 151.821 414.986C154.331 408.843 152.554 406.063 153.856 398.873C155.614 389.179 159.784 389.034 161.257 381.454C162.994 372.513 158.068 368.211 154.744 356.514C152.894 350.008 151.268 340.257 153.21 327.231C162.561 329.795 171.913 332.358 181.263 334.92Z" fill="url(#paint3_linear_1_653)"/>
    <path d="M165.053 333.259C170.938 340.706 187.476 363.625 187.955 396.98C188.402 428.095 174.62 450.255 169.095 458.225C166.793 458.011 164.492 457.804 162.188 457.593C161.608 451.004 161.312 441.114 163.333 429.393C166.345 411.937 171.112 410.051 170.394 400.095C169.495 387.608 161.636 385.605 149.399 362.924C142.806 350.702 134.93 336.101 140.048 330.696C141.019 329.672 145.769 325.478 165.05 333.26L165.053 333.259Z" fill="url(#paint4_linear_1_653)"/>
    <path d="M171.039 241.885C179.329 243.4 184.297 249.111 185.665 250.732C187.366 252.746 192.399 259.318 192.496 276.129C192.589 292.246 188.008 294.111 186.619 309.402C184.572 331.952 193.206 342.538 187.186 347.622C182.061 351.949 175.83 344.261 158.563 345.093C144.312 345.781 141.566 351.355 129.315 349.96C127.443 349.746 111.085 347.715 108.56 339.118C106.806 333.145 113.262 329.227 122.111 314.768C130.583 300.926 134.75 288.043 136.818 281.643C143.062 262.337 140.472 257.059 147.528 249.999C148.407 249.119 158.281 239.552 171.039 241.885Z" fill="#ADD0FF"/>
    <path d="M162.664 226.57C162.664 226.57 164.352 238.351 157.915 244.676C157.459 245.125 157.671 245.9 158.297 246.031C161.286 246.663 168.239 247.679 174.983 245.404C175.571 245.207 175.702 244.426 175.22 244.036C173.81 242.9 171.437 240.727 170.171 238.117C168.298 234.25 167.962 227.65 167.962 227.65L162.664 226.57Z" fill="#84420A"/>
    <path d="M122.112 314.769C130.584 300.928 134.751 288.045 136.819 281.644C143.063 262.338 140.473 257.06 147.529 250.001C147.981 249.549 150.81 246.805 155.182 244.559C154.023 248.349 153.331 252.808 153.983 257.634C156.21 274.091 172.025 279.813 170.016 290.036C168.179 299.38 154.098 298.992 152.076 309.016C149.993 319.334 163.624 326.109 160.856 333.366C158.184 340.369 144.481 336.69 130.892 345.061C128.823 346.337 126.954 347.77 125.264 349.307C119.704 348.195 110.415 345.423 108.563 339.117C106.809 333.145 113.265 329.226 122.114 314.768L122.112 314.769Z" fill="#80B7FF"/>
    <path d="M162.466 230.777C162.466 230.777 165.372 234.786 169.93 233.115C174.012 231.619 171.576 221.029 168.339 219.822C167.259 219.419 165.276 219.597 163.95 220.428C163.018 221.011 160.528 224.118 161.955 227.601C160.924 227.301 160.016 227.574 159.789 228.087C159.5 228.738 160.374 229.623 160.571 229.825C161.258 230.521 162.084 230.715 162.466 230.779V230.777Z" fill="#AC560E"/>
    <path d="M134.285 311.145L137.764 313.192C138.38 312.499 139.805 311.097 142.046 310.59C144.572 310.019 147.484 310.73 147.559 311.498C147.62 312.113 145.857 312.764 145.584 312.864C143.384 313.676 141.737 313.059 140.854 313.918C140.542 314.222 140.152 314.784 139.252 315.315C139.016 315.454 138.767 315.577 138.638 315.629C137.167 316.199 134.618 313.797 134.398 313.587L134.285 311.145Z" fill="#AC560E"/>
    <path d="M147.901 272.134C150.351 266.384 153.374 257.415 154.121 245.459C128.157 255.663 105.105 273.919 110.462 292.204C114.876 307.277 130.506 314.397 133.989 315.893C134.782 314.129 135.573 312.366 136.365 310.602C132.303 306.403 127.712 300.171 128.288 292.964C129.085 282.972 142.938 283.776 147.901 272.134Z" fill="#93BEFF"/>
    <defs>
        <linearGradient id="paint0_linear_1_653" x1="301.175" y1="-315.867" x2="-179.949" y2="-181.513" gradientUnits="userSpaceOnUse">
            <stop stop-color="#444B8C"/>
            <stop offset="1" stop-color="#3E4177"/>
        </linearGradient>
        <linearGradient id="paint1_linear_1_653" x1="269286" y1="668802" x2="302944" y2="691781" gradientUnits="userSpaceOnUse">
            <stop stop-color="#444B8C"/>
            <stop offset="1" stop-color="#3E4177"/>
        </linearGradient>
        <linearGradient id="paint2_linear_1_653" x1="76604" y1="285258" x2="87910.6" y2="285258" gradientUnits="userSpaceOnUse">
            <stop stop-color="#444B8C"/>
            <stop offset="1" stop-color="#3E4177"/>
        </linearGradient>
        <linearGradient id="paint3_linear_1_653" x1="74781.7" y1="285258" x2="85555.4" y2="285258" gradientUnits="userSpaceOnUse">
            <stop stop-color="#444B8C"/>
            <stop offset="1" stop-color="#3E4177"/>
        </linearGradient>
        <linearGradient id="paint4_linear_1_653" x1="148177" y1="518259" x2="174331" y2="518259" gradientUnits="userSpaceOnUse">
            <stop stop-color="#444B8C"/>
            <stop offset="1" stop-color="#3E4177"/>
        </linearGradient>
    </defs>
</svg>
